<?xml version="1.0" standalone="no"?><!DOCTYPE svg PUBLIC "-//W3C//DTD SVG 1.1//EN" "http://www.w3.org/Graphics/SVG/1.1/DTD/svg11.dtd">
<svg width="100%" height="100%" viewBox="0 0 2448 3264" version="1.1" xmlns="http://www.w3.org/2000/svg" xmlns:xlink="http://www.w3.org/1999/xlink" xml:space="preserve" style="fill-rule:evenodd;clip-rule:evenodd;stroke-linejoin:round;stroke-miterlimit:1.41421;">
  <g>
    <path d="M1418.48,1761.5l123.004,514.124l-3.228,13.218l-473.792,546.916l-22.481,0.04l-477.208,
      -546.916l-1.64,-6.755l-1.601,-6.594l126.421,-514.124l26.101,-5.739l339.15,424.601l339.151,
      -424.601l26.123,5.83ZM1053.21,2204.13l-350.788,-439.172l-126.42,514.124l477.208,546.916l473.792,
      -546.916l-123.004,-514.124l-350.788,439.172Z" style="fill:#fff;"/>
      <path d="M1053.09,2255.51l315.397,-390.986l26.089,5.929l95.67,405.21l-3.279,13.222l-422.54,483.675l-11.191,
        0.029l-11.191,0.03l-427.096,-483.675l-3.35,-13.204l93.392,-405.209l26.012,
        -6.124l322.087,391.103ZM1053.21,2279.08l-333.704,-405.209l-93.391,405.209l427.095,483.675l422.541,
        -483.675l-95.67,-405.209l-326.871,405.209Z" style="fill:#fff;"/></g><g>
        <path d="M1262.47,1232.23l99.086,425.118l-2.559,12.276l-293.842,394.669l-23.745,0.196l-304.092,
          -394.669l-1.344,-6.268l-1.346,-6.277l101.364,-425.119l14.488,-11.44l397.484,0l14.506,
          11.514ZM850.48,1235.61l-101.364,425.118l304.092,394.669l293.842,-394.669l-99.086,
          -425.118l-397.484,0Z" style="fill:#2ecc71;"/>
          <path d="M1292.07,1158.39l124.143,522.424l-2.84,12.722l-349.649,439.07l-23.288,0.019l-350.788,
            -439.071l-1.418,-6.388l-1.422,-6.412l126.42,-522.423l14.477,
            -11.392l449.874,0l14.491,11.451ZM827.702,1161.83l-126.421,522.423l350.788,439.071l349.65,
            -439.071l-124.143,-522.423l-449.874,0Z" style="fill:#2ecc71;"/></g><g>
            <path d="M1098.02,341.602l136.671,712.687l-14.629,17.7l-342.815,0l-7.13,-8.668l-7.485,-9.099l140.087,
              -712.688l14.615,-12.022l66.058,0l14.628,12.09ZM1017.33,344.407l-140.087,712.688l342.815,0l-136.67,
              -712.688l-66.058,0Z" style="fill:#fff;"/>
              <path d="M1127.61,284.071l165.143,823.301l-14.603,17.824l-453.292,0l-14.595,-17.863l167.421,
                -823.301l11.126,-9.092l3.47,-2.835l120.726,0l14.604,11.966ZM992.276,287l-167.422,823.301l453.292,
                0l-165.144,-823.301l-120.726,0Z" style="fill:#fff;"/></g></svg>
