<svg id="theC" width="100%" height="100%" viewBox="0 0 84 99" version="1.1" xmlns="http://www.w3.org/2000/svg" xmlns:xlink="http://www.w3.org/1999/xlink" xml:space="preserve" 
  style="fill-rule:evenodd;clip-rule:evenodd;stroke-linejoin:round;stroke-miterlimit:1.41421;">
    <g transform="matrix(1,0,0,1,-80.1045,-300.87)">
        <g transform="matrix(1,0,0,1,0,-10.0982)">
            <g>
                <g>
                    <path d="M99.905,310.968L163.864,310.968L142.917,330.845L112.639,330.845L99.905,360.45L112.639,389.97L142.917,389.97L163.864,409.159L99.905,409.159L80.105,360.45L99.905,310.968Z" style="fill:rgb(235,254,255);"/>
                    <path d="M142.917,330.845L112.639,330.845L99.905,
                      360.45L112.639,389.97L142.917,389.97L163.864,
                      409.159L99.905,409.159L80.105,360.45L99.905,
                      310.968L163.864,310.968L142.917,330.845ZM102.094,
                      314.203L83.592,360.441L102.081,405.925L155.545,
                      405.925L141.659,393.205L112.639,393.205L109.67,391.251L96.935,
                      361.731L96.934,359.172L109.668,329.567L112.639,327.611L141.627,
                      327.611L155.757,314.203L102.094,314.203Z" style="fill:rgb(253,255,251);"/>
                </g>
            </g>
        </g>
    </g>
</svg>
