<svg width="100%" height="100%" viewBox="0 0 79 100" version="1.1" xmlns="http://www.w3.org/2000/svg" xmlns:xlink="http://www.w3.org/1999/xlink"
  xml:space="preserve" style="fill-rule:evenodd;clip-rule:evenodd;stroke-linejoin:round;stroke-miterlimit:1.41421;">
    <g transform="matrix(1,0,0,1,-201.346,-300.87)">
        <g>
            <g>
                <path d="M201.346,300.87L259.382,300.87L280.224,350.498L259.382,
                  400.606L201.346,400.606L201.346,340.23L219.714,350.498L219.714,
                  380.623L248.407,380.623L259.382,350.498L248.407,321.204L219.714,
                  321.204L201.346,300.87Z"/>
                <path d="M280.224,350.498L259.382,400.606L201.346,400.606L201.346,
                  340.23L219.714,350.498L219.714,380.623L248.407,380.623L259.382,
                  350.498L248.407,321.204L219.714,321.204L201.346,300.87L259.382,
                  300.87L280.224,350.498ZM208.626,304.104L221.151,317.969L248.407,
                  317.969L251.436,320.069L262.411,349.363L262.421,351.605L251.446,
                  381.73L248.407,383.857L219.714,383.857L216.48,380.623L216.48,
                  352.395L204.58,345.743L204.58,397.372L257.224,397.372L276.718,
                  350.504L257.232,304.104L208.626,304.104Z" />
            </g>
        </g>
    </g>
</svg>
