<svg width="100%" height="100%" viewBox="0 0 101 100" version="1.1" xmlns="http://www.w3.org/2000/svg" xmlns:xlink="http://www.w3.org/1999/xlink" xml:space="preserve" style="fill-rule:evenodd;clip-rule:evenodd;stroke-linejoin:round;stroke-miterlimit:1.41421;">
    <g transform="matrix(1,0,0,1,-400.702,-300.115)">
        <g>
            <g>
                <path d="M440.693,399.433L461.01,399.433L461.01,320.74L481.697,320.74L500.86,300.115L400.702,300.115L417.731,
                  320.74L440.693,320.74L440.693,399.433Z"/>
                <path d="M481.697,320.74L461.01,320.74L461.01,399.433L440.693,399.433L440.693,320.74L417.731,320.74L400.702,300.115L500.86,
                  300.115L481.697,320.74ZM407.566,303.349L419.254,317.506L440.693,317.506L443.927,320.74L443.927,396.199L457.776,
                  396.199L457.776,320.74L461.01,317.506L480.288,317.506L493.44,303.349L407.566,303.349Z" />
            </g>
        </g>
    </g>
</svg>
